0
SECTION
2
HEADER
9
$INSUNITS
70
4
9
$ACADVER
1
AC1014
9
$HANDSEED
5
FFFF
0
ENDSEC
0
SECTION
2
TABLES
0
TABLE
2
VPORT
5
8
100
AcDbSymbolTable
0
ENDTAB
0
TABLE
2
LTYPE
5
5
100
AcDbSymbolTable
0
LTYPE
5
14
100
AcDbSymbolTableRecord
100
AcDbLinetypeTableRecord
2
BYBLOCK
70
0
0
LTYPE
5
15
100
AcDbSymbolTableRecord
100
AcDbLinetypeTableRecord
2
BYLAYER
70
0
0
ENDTAB
0
TABLE
2
LAYER
5
2
100
AcDbSymbolTable
70
2
0
LAYER
5
50
100
AcDbSymbolTableRecord
100
AcDbLayerTableRecord
2
0
70
0
6
CONTINUOUS
0
ENDTAB
0
TABLE
2
STYLE
5
3
100
AcDbSymbolTable
70
1
0
STYLE
5
11
100
AcDbSymbolTableRecord
100
AcDbTextStyleTableRecord
2
STANDARD
70
0
0
ENDTAB
0
TABLE
2
VIEW
5
6
100
AcDbSymbolTable
70
0
0
ENDTAB
0
TABLE
2
UCS
5
7
100
AcDbSymbolTable
70
0
0
ENDTAB
0
TABLE
2
APPID
5
9
100
AcDbSymbolTable
70
2
0
APPID
5
12
100
AcDbSymbolTableRecord
100
AcDbRegAppTableRecord
2
ACAD
70
0
0
ENDTAB
0
TABLE
2
DIMSTYLE
5
A
100
AcDbSymbolTable
70
1
0
ENDTAB
0
TABLE
2
BLOCK_RECORD
5
1
100
AcDbSymbolTable
70
1
0
BLOCK_RECORD
5
1F
100
AcDbSymbolTableRecord
100
AcDbBlockTableRecord
2
*MODEL_SPACE
0
BLOCK_RECORD
5
1B
100
AcDbSymbolTableRecord
100
AcDbBlockTableRecord
2
*PAPER_SPACE
0
ENDTAB
0
ENDSEC
0
SECTION
2
BLOCKS
0
BLOCK
5
20
100
AcDbEntity
100
AcDbBlockBegin
2
*MODEL_SPACE
0
ENDBLK
5
21
100
AcDbEntity
100
AcDbBlockEnd
0
BLOCK
5
1C
100
AcDbEntity
100
AcDbBlockBegin
2
*PAPER_SPACE
0
ENDBLK
5
1D
100
AcDbEntity
100
AcDbBlockEnd
0
ENDSEC
0
SECTION
2
ENTITIES
0
LWPOLYLINE
5
100
100
AcDbEntity
8
0
100
AcDbPolyline
90
8
70
1
43
0.0
10
-39.900000000000006
20
60
10
40.000000000000014
20
60
42
-0.41421356237309453
10
60
20
40
10
60
20
-40
42
-0.41421356237309503
10
40
20
-60
10
-39.900000000000006
20
-60
42
-0.41421356237309503
10
-59.900000000000006
20
-40
10
-59.900000000000006
20
40
42
-0.41421356237309503
0
CIRCLE
5
101
100
AcDbEntity
8
0
100
AcDbCircle
10
0
20
55
30
0
40
1.5000000000000002
210
0
220
0
230
1
0
LWPOLYLINE
5
102
100
AcDbEntity
8
0
100
AcDbPolyline
90
4
70
1
43
0.0
10
-10.936002846057598
20
50.000000000000007
10
-10.936002846057583
20
39.99999982030964
42
0.99999993993150071
10
-7.9360028460445475
20
40.000000000000014
10
-7.9360028460445475
20
49.999761844251935
42
1.0000793884319659
0
CIRCLE
5
103
100
AcDbEntity
8
0
100
AcDbCircle
10
34.20000000000001
20
30.700000000000003
30
0
40
1.4999999999999993
210
0
220
0
230
1
0
CIRCLE
5
104
100
AcDbEntity
8
0
100
AcDbCircle
10
-14.000000000000004
20
31.999999999999993
30
0
40
1.5
210
0
220
0
230
1
0
CIRCLE
5
105
100
AcDbEntity
8
0
100
AcDbCircle
10
18.999999999999993
20
-20.100000000000009
30
0
40
1.5000000000000011
210
0
220
0
230
1
0
LINE
5
106
100
AcDbEntity
8
0
100
AcDbLine
10
-36.899999999999999
20
-1.224646799147353e-16
30
0
11
-39.899999999999999
21
-3.9504735456366809e-18
31
0
0
LINE
5
107
100
AcDbEntity
8
0
100
AcDbLine
10
-39.899999999999999
20
-3.9504735456366809e-18
30
0
11
-39.899999999999999
21
-5
31
0
0
LINE
5
108
100
AcDbEntity
8
0
100
AcDbLine
10
-39.899999999999999
20
-5
30
0
11
-36.899999999999999
21
-5
31
0
0
LINE
5
109
100
AcDbEntity
8
0
100
AcDbLine
10
-39.899999999999999
20
-10.050000000000001
30
0
11
-39.900000000000006
21
-15.050000000000001
31
0
0
LINE
5
110
100
AcDbEntity
8
0
100
AcDbLine
10
-39.900000000000006
20
-15.050000000000001
30
0
11
-36.899999999999999
21
-15.050000000000001
31
0
0
LINE
5
111
100
AcDbEntity
8
0
100
AcDbLine
10
-36.899999999999999
20
-10.050000000000001
30
0
11
-39.899999999999999
21
-10.050000000000001
31
0
0
CIRCLE
5
112
100
AcDbEntity
8
0
100
AcDbCircle
10
-8.9000000000000128
20
-20.099999999999998
30
0
40
1.4999999999999991
210
0
220
0
230
1
0
LWPOLYLINE
5
113
100
AcDbEntity
8
0
100
AcDbPolyline
90
4
70
1
43
0.0
10
7.9360028460445475
20
49.999761844251935
10
7.9360028460445466
20
40.000000000000014
42
0.99999993993150071
10
10.936002846057598
20
39.99999982030964
10
10.936002846057598
20
50.000000000000007
42
1.0000793884319659
0
LINE
5
114
100
AcDbEntity
8
0
100
AcDbLine
10
39.899999999999999
20
0
30
0
11
39.899999999999999
21
-5.0999999999999996
31
0
0
LINE
5
115
100
AcDbEntity
8
0
100
AcDbLine
10
39.899999999999999
20
-5.0999999999999996
30
0
11
36.899999999999999
21
-5.0999999999999996
31
0
0
LINE
5
116
100
AcDbEntity
8
0
100
AcDbLine
10
36.899999999999999
20
-10.050000000000001
30
0
11
39.899999999999999
21
-10.050000000000001
31
0
0
LINE
5
117
100
AcDbEntity
8
0
100
AcDbLine
10
39.899999999999999
20
-15.150000000000002
30
0
11
36.899999999999999
21
-15.150000000000002
31
0
0
LINE
5
118
100
AcDbEntity
8
0
100
AcDbLine
10
39.899999999999999
20
-10.050000000000001
30
0
11
39.899999999999999
21
-15.150000000000002
31
0
0
LINE
5
119
100
AcDbEntity
8
0
100
AcDbLine
10
36.899999999999999
20
0
30
0
11
39.899999999999999
21
0
31
0
0
CIRCLE
5
120
100
AcDbEntity
8
0
100
AcDbCircle
10
0
20
-55
30
0
40
1.5000000000000002
210
0
220
0
230
1
0
CIRCLE
5
121
100
AcDbEntity
8
0
100
AcDbCircle
10
40.000000074505799
20
-27.499999999999996
30
0
40
1.4999999999999991
210
0
220
0
230
1
0
CIRCLE
5
122
100
AcDbEntity
8
0
100
AcDbCircle
10
40.000000074505799
20
30.500000000000004
30
0
40
1.4999999999999991
210
0
220
0
230
1
0
CIRCLE
5
123
100
AcDbEntity
8
0
100
AcDbCircle
10
-50.00000074505806
20
50.00000074505806
30
0
40
1.5000000000000036
210
0
220
0
230
1
0
CIRCLE
5
124
100
AcDbEntity
8
0
100
AcDbCircle
10
-50.00000074505806
20
-50.000000745058074
30
0
40
1.5000000000000036
210
0
220
0
230
1
0
CIRCLE
5
125
100
AcDbEntity
8
0
100
AcDbCircle
10
50.000000745058053
20
-50.000000745058067
30
0
40
1.5000000000000036
210
0
220
0
230
1
0
CIRCLE
5
126
100
AcDbEntity
8
0
100
AcDbCircle
10
50.000000745058067
20
50.000000745058053
30
0
40
1.5000000000000036
210
0
220
0
230
1
0
CIRCLE
5
127
100
AcDbEntity
8
0
100
AcDbCircle
10
-55
20
34
30
0
40
1.5000000000000036
210
0
220
0
230
1
0
CIRCLE
5
128
100
AcDbEntity
8
0
100
AcDbCircle
10
-55
20
-19.500000000000007
30
0
40
1.4999999999999947
210
0
220
0
230
1
0
CIRCLE
5
129
100
AcDbEntity
8
0
100
AcDbCircle
10
-24
20
-19.500000000000007
30
0
40
1.4999999999999991
210
0
220
0
230
1
0
CIRCLE
5
130
100
AcDbEntity
8
0
100
AcDbCircle
10
-24
20
34
30
0
40
1.4999999999999991
210
0
220
0
230
1
0
CIRCLE
5
131
100
AcDbEntity
8
0
100
AcDbCircle
10
-38.999999925494208
20
-27.499999999999996
30
0
40
1.4999999999999991
210
0
220
0
230
1
0
CIRCLE
5
132
100
AcDbEntity
8
0
100
AcDbCircle
10
40.000000074505799
20
41.5
30
0
40
1.4999999999999991
210
0
220
0
230
1
0
CIRCLE
5
133
100
AcDbEntity
8
0
100
AcDbCircle
10
-38.999999925494208
20
41.5
30
0
40
1.4999999999999991
210
0
220
0
230
1
0
LINE
5
134
100
AcDbEntity
8
0
100
AcDbLine
10
-36.899999999999999
20
-1.224646799147353e-16
30
0
11
-34.899999999999999
21
-1.224646799147353e-16
31
0
0
LINE
5
135
100
AcDbEntity
8
0
100
AcDbLine
10
-34.899999999999999
20
-1.224646799147353e-16
30
0
11
-34.899999999999999
21
-5.0999999999999996
31
0
0
LINE
5
136
100
AcDbEntity
8
0
100
AcDbLine
10
-34.899999999999999
20
-5.0999999999999996
30
0
11
-36.899999999999999
21
-5.0999999999999996
31
0
0
LINE
5
137
100
AcDbEntity
8
0
100
AcDbLine
10
-36.899999999999999
20
-10.050000000000001
30
0
11
-34.899999999999999
21
-10.050000000000001
31
0
0
LINE
5
138
100
AcDbEntity
8
0
100
AcDbLine
10
-34.899999999999999
20
-10.050000000000001
30
0
11
-34.899999999999999
21
-15.050000000000001
31
0
0
LINE
5
139
100
AcDbEntity
8
0
100
AcDbLine
10
-34.899999999999999
20
-15.050000000000001
30
0
11
-36.899999999999999
21
-15.050000000000001
31
0
0
LINE
5
140
100
AcDbEntity
8
0
100
AcDbLine
10
36.899999999999999
20
0
30
0
11
34.899999999999999
21
0
31
0
0
LINE
5
141
100
AcDbEntity
8
0
100
AcDbLine
10
34.899999999999999
20
0
30
0
11
34.899999999999999
21
-5
31
0
0
LINE
5
142
100
AcDbEntity
8
0
100
AcDbLine
10
34.899999999999999
20
-5
30
0
11
36.899999999999999
21
-5
31
0
0
LINE
5
143
100
AcDbEntity
8
0
100
AcDbLine
10
36.899999999999999
20
-10.050000000000001
30
0
11
34.899999999999999
21
-10.050000000000001
31
0
0
LINE
5
144
100
AcDbEntity
8
0
100
AcDbLine
10
34.899999999999999
20
-10.050000000000001
30
0
11
34.899999999999999
21
-15.050000000000001
31
0
0
LINE
5
145
100
AcDbEntity
8
0
100
AcDbLine
10
34.899999999999999
20
-15.050000000000001
30
0
11
36.899999999999999
21
-15.050000000000001
31
0
0
LWPOLYLINE
5
146
100
AcDbEntity
8
0
100
AcDbPolyline
90
8
70
1
43
0.0
10
23.000000298023224
20
55.000000819563866
10
32.000000521540642
20
55.000000819563866
42
-0.41421356237309892
10
35.000000521540635
20
52.000000819563859
10
35.000000521540635
20
48.000000670552261
42
-0.41421356237309809
10
32.000000521540642
20
45.000000670552254
10
23.000000298023224
20
45.000000670552254
42
-0.41421356237309892
10
20.000000298023227
20
48.000000670552261
10
20.000000298023227
20
52.000000819563859
42
-0.41421356237309892
0
LINE
5
147
100
AcDbEntity
8
0
100
AcDbLine
10
0
20
10.000000149011612
30
0
11
0
21
-8.0000001192092896
31
0
0
LINE
5
148
100
AcDbEntity
8
0
100
AcDbLine
10
8.0000001192092896
20
0
30
0
11
-9.0000001341104507
21
0
31
0
0
LWPOLYLINE
5
149
100
AcDbEntity
8
0
100
AcDbPolyline
90
8
70
1
43
0.0
10
-23.000000298023224
20
55.000000819563866
10
-32.000000521540642
20
55.000000819563866
42
0.41421356237309892
10
-35.000000521540635
20
52.000000819563859
10
-35.000000521540642
20
48.000000670552254
42
0.41421356237309809
10
-32.000000521540642
20
45.000000670552254
10
-23.000000298023224
20
45.000000670552254
42
0.41421356237309892
10
-20.000000298023227
20
48.000000670552261
10
-20.000000298023227
20
52.000000819563859
42
0.41421356237309892
0
LWPOLYLINE
5
150
100
AcDbEntity
8
0
100
AcDbPolyline
90
8
70
1
43
0.0
10
32.000000521540642
20
-45.000000670552254
10
23.000000298023224
20
-45.000000670552254
42
0.41421356237309892
10
20.000000298023227
20
-48.000000670552261
10
20.000000298023227
20
-52.000000819563859
42
0.41421356237309892
10
23.000000298023224
20
-55.000000819563866
10
32.000000521540642
20
-55.000000819563866
42
0.41421356237309892
10
35.000000521540635
20
-52.000000819563859
10
35.000000521540642
20
-48.000000670552254
42
0.41421356237309809
0
LWPOLYLINE
5
151
100
AcDbEntity
8
0
100
AcDbPolyline
90
8
70
1
43
0.0
10
-32.000000521540642
20
-45.000000670552254
10
-23.000000298023224
20
-45.000000670552254
42
-0.41421356237309892
10
-20.000000298023227
20
-48.000000670552261
10
-20.000000298023227
20
-52.000000819563859
42
-0.41421356237309892
10
-23.000000298023224
20
-55.000000819563866
10
-32.000000521540642
20
-55.000000819563873
42
-0.41421356237309853
10
-35.000000521540642
20
-52.000000819563859
10
-35.000000521540635
20
-48.000000670552254
42
-0.41421356237309764
0
ENDSEC
0
SECTION
2
OBJECTS
0
DICTIONARY
5
C
100
AcDbDictionary
3
ACAD_GROUP
350
D
3
ACAD_MLINESTYLE
350
17
0
DICTIONARY
5
D
100
AcDbDictionary
0
DICTIONARY
5
1A
330
C
100
AcDbDictionary
0
DICTIONARY
5
17
100
AcDbDictionary
0
ENDSEC
0
EOF
